<?xml version="1.0" encoding="UTF-8"?>
<svg xmlns="http://www.w3.org/2000/svg" viewBox="0 0 380 380">
  <rect width="380" height="380" fill="#1e293b"/>
  <style>.st0{fill:none}.st1{fill:#FFD400}</style>
  <path d="M324.6,186.6c-6.9,0-12.5,5.6-12.5,12.5c0,6.9,5.6,12.5,12.5,12.5s12.5-5.6,12.5-12.5C337.1,192.2,331.5,186.6,324.6,186.6z"/>
  <g>
    <path class="st0" d="M292.6,241h48.3c8.8,0,15.9-7.1,15.9-15.9v-51.9c0-8.8-7.1-15.9-15.9-15.9h-43.3c2.4,10.7,3.7,21.8,3.7,33.2C301.3,208.2,298.3,225.2,292.6,241z"/>
    <path d="M340.9,135.3h-5.3V51.5c0-6.1-4.9-11-11-11s-11,4.9-11,11v83.8h-22.8c2.8,7.1,5.1,14.4,6.8,22h43.3c8.8,0,15.9,7.1,15.9,15.9V225c0,8.8-7.1,15.9-15.9,15.9h-48.3c-2.7,7.6-6,15-9.9,22h58.2c20.9,0,37.9-17,37.9-37.9v-51.8C378.8,152.3,361.8,135.3,340.9,135.3z"/>
    <circle class="st1" cx="152.2" cy="190.5" r="150"/>
  </g>
  <g fill="#1e293b">
    <path d="M101.9,169.6c0,0,1.4-2.8,4.8-5.9c1.7-1.5,4-3.1,6.8-4.3c2.8-1.1,6.3-1.8,9.9-1.1l1.3,0.3l0.5,0.1l0.2,0.1l0.5,0.2l2,0.8c1.3,0.5,2.6,1.1,3.8,1.7c2.4,1.2,4.7,2.3,6.6,3.6c3.8,2.4,6,4.5,6,4.5s-3.1,0-7.3-0.8c-2.1-0.4-4.6-0.9-7.2-1.6c-1.3-0.4-2.7-0.7-4-1.1l-2-0.7l-0.5-0.2l-0.2-0.1l-0.8-0.1c-1-0.2-2.2-0.2-3.3-0.2c-1.2,0.1-2.3,0.2-3.5,0.4c-2.3,0.5-4.6,1.2-6.6,1.9C104.6,168.6,101.9,169.6,101.9,169.6z"/>
    <path d="M197,169.7c0,0-2.7-1-6.8-2.5c-1-0.3-2-0.6-3.2-1c-1.1-0.3-2.3-0.6-3.4-0.9c-1.2-0.2-2.3-0.4-3.5-0.4c-1.1,0-2.3,0-3.3,0.2l-0.8,0.1l-0.2,0.1l-0.5,0.2l-2,0.7c-1.4,0.4-2.7,0.8-4,1.2c-2.6,0.7-5.1,1.2-7.2,1.6c-4.2,0.8-7.3,0.8-7.3,0.8s2.2-2.1,6-4.5c1.9-1.3,4.1-2.4,6.6-3.6c1.2-0.6,2.5-1.2,3.8-1.7l2-0.8l0.5-0.2l0.2-0.1l0.5-0.1l1.3-0.3c3.6-0.7,7.1,0,9.9,1.2c2.8,1.2,5.1,2.7,6.8,4.3C195.7,166.9,197,169.7,197,169.7z"/>
    <path d="M229.2,220.5c-2.4-13.9-18.8-29-18.6-29.7c0.1-0.2,0.2-0.5,0.4-0.7c0.8,0.3,2.6,1.5,3.4,1.5c4.8-0.3,7.1-4.7,7.7-6.7c1-3.2,4-19.9,3.7-23.4c-0.5-7.3-5.1-11.2-9.9-13.2c0.4-10-0.1-21.9-3.1-33.1c-1.6-6.2-4.2-12.1-7.4-17.4c-8.6-17.5-25.9-32.1-54.4-32.1c-15.8,0-28.2,4.5-37.7,11.5c-12.2,5.4-22.7,20.7-26.5,38.8c-2.4,11.2-2.6,23.1-1.9,32.9c-1.8,0.9-3.5,1.9-4.9,3.4c-2.5,2.6-3.8,5.7-3.7,9.4c0.1,2.8,2.2,19.8,4.2,23.6c1.8,3.4,3.5,7.1,7.2,7.1c0.8,0,2.8-1.8,3.6-2.1c0.1,0.1,0.1,0.2,0.2,0.4c0.1,0.6-15,12.8-17.2,26.9c-3.1,19.1-5.7,38.2,3.2,61.3c4.7,12.1,44.7,36.3,73,36.3s66.8-22.8,72.5-34.4C233.1,260.7,232.5,239.2,229.2,220.5z M215.5,154.1c2.4,1.4,4.6,3.8,4.9,7.8c0.2,2.4-2.5,18.1-3.5,21.4c-0.4,1.2-2.2,1.5-3.7,1.5C214.1,178.7,214.8,161.4,215.5,154.1z M89.1,185.2c-1.7,0-2.9-0.8-3.8-2.4c-1.2-2.4-3.5-18-3.6-21.1c0-2.2,0.7-4,2.2-5.5c0.5-0.5,1-0.9,1.6-1.3c0.8,6.6,2.7,23.3,3.9,30.3C89.3,185.2,89.2,185.2,89.1,185.2z M139.2,222.7c1.5-0.2,3-0.6,4.2-1.2c8.6-3.8,9.4-4,17.4-0.1c1.2,0.6,2.7,1,4.3,1.3C157.8,222.6,146.8,222.6,139.2,222.7z M203.7,194.9c-2.1,2.5-8.1,9.4-13.5,20c-1-0.4-2.3-0.7-3.6-0.9c-12.2-1.5-11.9-4.3-17.6-7.5c-3.3-1.8-9.2-2.2-16.9,0c-6.2-2.1-12.9-2.1-16.2-0.3c-4.3,2.4-9.1,5.9-13.7,7.3c-0.4-0.1-0.8,0-1.1,0.3c-1.2,0.3-2.3,0.4-3.5,0.3c-2,0.3-3.7,0.9-5.1,1.6c-9.8-15.1-14.9-20.3-14.8-20.8c0-0.2-0.1-0.4-0.1-0.6c0-0.1,0.1-0.1,0.1-0.2c2-3.7-1.1-34.5-0.8-40.9l1.2-3.2c0.9-3.9,0.8-7.8,0.2-11.6c0.4-2,0.8-4,1.5-5.9c4-11.3,8.9,0.5,27.8-18.3c4.4-4.4,6.3-9.3,6.7-14.1c13.8,7.8,30.2,14.8,39.2,14.8c5.6,0,22.4,7.5,27.8,18.1c1.2,2.4,2,4.8,2.5,7.4c-0.2,3.1-0.1,6.3,0.7,9.7l0.3,1.3C204.9,158.5,201.5,190.8,203.7,194.9z"/>
  </g>
</svg>